<?xml version="1.0"?>
<svg xmlns="http://www.w3.org/2000/svg" width="50" height="50" viewBox="0 0 50 50">
    <path d="M 26 0 C 24.752557 0 23.709525 0.54282837 23.03125 1.3125 C 22.443238 1.9797452 22.141119 2.8002398 22.0625 3.625 C 21.416256 3.2455642 20.708081 3 20 3 C 19.061575 3 18.086422 3.3085857 17.3125 3.96875 C 16.538578 4.6289143 16 5.6988289 16 6.9375 L 16 25.0625 L 14.34375 22.84375 C 14.32724 22.81828 14.29819 22.80631 14.28125 22.78125 C 12.975959 20.850643 10.397399 20.151784 8.46875 21.34375 C 6.5601451 22.552445 6.1062791 25.149808 7.3125 27.125 L 7.28125 27.125 C 7.28125 27.125 7.342818 27.21693 7.34375 27.21875 C 7.433624 27.394693 11.772441 35.889714 14.4375 39.5 C 15.036854 40.312098 16.292198 41.651691 17 42.40625 L 17 48 C 17 49.093063 17.906937 50 19 50 L 38 50 C 39.093063 50 40 49.093063 40 48 C 40 47.447083 40.000642 42.425131 40 42.15625 C 41.858687 38.740248 42 33.446681 42 32 L 42 12 C 42 11.249071 41.962854 10.111091 41.4375 9.03125 C 40.912146 7.9514095 39.705394 7 38 7 C 37.207608 7 36.560601 7.2642303 36 7.59375 L 36 7 C 36 5.5017219 35.731212 4.2925417 35.03125 3.375 C 34.331288 2.4574583 33.206875 2 32 2 C 31.10262 2 30.367256 2.2716036 29.75 2.65625 C 29.580267 2.1779618 29.322499 1.7139156 28.96875 1.3125 C 28.290475 0.54282837 27.247443 0 26 0 z M 26 2 C 26.700557 2 27.134025 2.2451716 27.46875 2.625 C 27.803475 3.0048284 28 3.5491189 28 4 L 28 6 L 28 20 L 30 20 L 30 6 C 30 5.4706595 30.160342 4.9361393 30.4375 4.59375 C 30.714658 4.2513607 31.094831 4 32 4 C 32.791125 4 33.168212 4.1685417 33.46875 4.5625 C 33.769288 4.9564583 34 5.7442781 34 7 L 34 12 L 34 21 L 36 21 L 36 12 C 36 11.348929 36.0666 10.475909 36.34375 9.90625 C 36.620896 9.3365905 36.915394 9 38 9 C 39.084606 9 39.379104 9.3365905 39.65625 9.90625 C 39.933396 10.475909 40 11.348929 40 12 L 40 32 C 40 33.26249 39.623167 38.984768 38.125 41.46875 A 1.0001 1.0001 0 0 0 38 42 L 38 48 L 19 48 L 19 42.03125 A 1.0001 1.0001 0 0 0 18.71875 41.34375 C 18.116824 40.70445 16.508114 38.916287 16.0625 38.3125 C 13.663185 35.062211 9.0625 26.21875 9.0625 26.21875 A 1.0001 1.0001 0 0 0 9.03125 26.125 C 8.2992362 24.984285 8.5717636 23.638881 9.53125 23.03125 C 10.483571 22.442686 11.914962 22.793798 12.65625 23.9375 A 1.0001 1.0001 0 0 0 12.6875 24 L 16.21875 28.59375 A 1.0001 1.0001 0 0 0 18 28 L 18 6.9375 C 18 6.2531711 18.249172 5.8205857 18.625 5.5 C 19.000828 5.1794143 19.537425 5 20 5 C 20.462575 5 21.000545 5.1743158 21.375 5.5 C 21.749455 5.8256842 22 6.2665 22 7 L 22 20 L 24 20 L 24 7 L 24 4 C 24 3.5491189 24.196525 3.0048284 24.53125 2.625 C 24.865975 2.2451716 25.299443 2 26 2 z M 26.65625 26.5625 C 26.263015 26.593044 25.857704 26.700229 25.4375 26.875 C 23.756563 27.574657 23.109615 29.078185 23.03125 30.21875 C 22.99027 30.815238 23.10696 30.93421 23.1875 31.3125 C 22.800297 31.42231 22.620997 31.40829 22.0625 31.75 C 21.565766 32.053918 21.05472 32.498219 20.6875 33.125 C 20.32028 33.751781 20.135859 34.547918 20.28125 35.4375 C 20.563784 37.157246 21.769314 38.180944 22.78125 38.625 C 23.304502 38.854612 23.416861 38.818568 23.78125 38.875 C 23.76022 39.248678 23.68155 39.350689 23.8125 39.90625 C 24.070372 41.000285 24.931103 42.372467 26.6875 42.90625 C 28.48404 43.450542 29.987631 42.571622 30.71875 41.65625 C 31.101018 41.177644 31.067866 41.026557 31.21875 40.65625 C 31.583629 40.796875 31.656139 40.915119 32.25 40.96875 C 33.3998 41.072587 35.024701 40.658954 35.9375 39.0625 C 36.837416 37.494605 36.520921 35.915059 35.9375 34.96875 C 35.652128 34.505877 35.521576 34.497388 35.25 34.25 C 35.503295 33.952407 35.642816 33.922449 35.875 33.375 C 36.32996 32.302283 36.382347 30.619212 35.125 29.15625 C 33.868414 27.693975 32.207954 27.521771 31.09375 27.84375 C 30.554826 27.999486 30.508614 28.133631 30.1875 28.34375 C 29.9749 28.025053 29.968065 27.907361 29.53125 27.53125 C 29.098481 27.158623 28.48246 26.812641 27.78125 26.65625 C 27.430645 26.578055 27.049485 26.531956 26.65625 26.5625 z M 26.875 28.53125 C 27.070436 28.508438 27.249292 28.524024 27.40625 28.5625 C 27.720165 28.63945 27.967019 28.814502 28.21875 29.03125 C 28.722213 29.464747 29 30.03125 29 30.03125 A 1.0001 1.0001 0 0 0 30.59375 30.34375 C 30.59375 30.34375 31.031454 29.952771 31.625 29.78125 C 32.218546 29.609729 32.779336 29.521025 33.59375 30.46875 C 34.409403 31.417788 34.28054 32.005967 34.03125 32.59375 C 33.78196 33.181533 33.34375 33.59375 33.34375 33.59375 A 1.0001 1.0001 0 0 0 33.4375 35.1875 C 33.4375 35.1875 33.895421 35.506809 34.21875 36.03125 C 34.542079 36.555691 34.773834 37.095395 34.21875 38.0625 C 33.681549 39.002046 33.1037 39.028913 32.4375 38.96875 C 31.7713 38.90859 31.1875 38.625 31.1875 38.625 A 1.0001 1.0001 0 0 0 29.75 39.25 C 29.75 39.25 29.572881 39.884622 29.15625 40.40625 C 28.739619 40.927878 28.34971 41.292458 27.28125 40.96875 C 26.171647 40.631533 25.926378 40.053215 25.78125 39.4375 C 25.636122 38.821785 25.71875 38.28125 25.71875 38.28125 A 1.0001 1.0001 0 0 0 24.78125 37.09375 C 24.78125 37.09375 24.206064 37.04994 23.59375 36.78125 C 22.981436 36.512556 22.416466 36.138254 22.25 35.125 C 22.17189 34.647082 22.2583 34.3775 22.40625 34.125 C 22.554186 33.8725 22.823109 33.653457 23.125 33.46875 C 23.728783 33.099336 24.40625 32.9375 24.40625 32.9375 A 1.0001 1.0001 0 0 0 25.1875 31.625 C 25.1875 31.625 24.985615 31.039185 25.03125 30.375 C 25.07689 29.710815 25.225687 29.132093 26.21875 28.71875 C 26.467546 28.615271 26.679564 28.554062 26.875 28.53125 z M 28.71875 32.40625 C 27.467825 32.40625 26.46875 33.405325 26.46875 34.65625 C 26.46875 35.907175 27.467825 36.9375 28.71875 36.9375 C 29.969675 36.9375 31 35.907175 31 34.65625 C 31 33.405325 29.969675 32.40625 28.71875 32.40625 z"/>
</svg>
