<?xml version="1.0"?>
<svg xmlns="http://www.w3.org/2000/svg" width="50" height="50" viewBox="0 0 50 50">
    <path style="text-indent:0;text-align:start;line-height:normal;text-transform:none;block-progression:tb;-inkscape-font-specification:Bitstream Vera Sans" d="M 35.5 7 C 28.307467 7 22.347685 12.243279 21.21875 19.125 C 19.950974 19.475445 19 20.624004 19 22 L 19 23.84375 A 1.0001 1.0001 0 0 0 19 23.9375 L 19 24 A 1.0001 1.0001 0 0 0 19 24.09375 L 19 28.375 C 18.367112 28.086382 17.368307 27.416632 16.25 26.5625 C 13.936873 24.795797 11.189231 22.282981 9.6875 20.78125 C 8.7990166 19.892767 8.3652567 19.249334 8.25 18.9375 C 8.1347433 18.625666 8.1471011 18.790281 8.21875 18.71875 C 8.6957017 18.242585 8.9071078 17.554263 8.8125 17.0625 C 8.7178922 16.570737 8.375 16.25 8.375 16.25 L 7.6875 15.5625 C 7.3636878 15.237466 6.9325625 15.0625 6.5 15.0625 C 6.0674375 15.0625 5.6363122 15.237466 5.3125 15.5625 L 0.5 20.375 C -0.14834971 21.02335 -0.14834971 22.10165 0.5 22.75 L 1.1875 23.4375 A 1.0001 1.0001 0 0 0 1.21875 23.46875 C 1.21875 23.46875 1.5334912 23.782951 2 23.875 C 2.4665088 23.96705 3.1582469 23.77925 3.625 23.3125 C 3.665447 23.27205 3.528135 23.23928 3.84375 23.34375 C 4.1593647 23.448215 4.8202907 23.851541 5.71875 24.75 C 6.5318699 25.563544 10.025884 29.626369 13.15625 33.71875 C 14.721433 35.76494 16.217422 37.834833 17.3125 39.5625 C 17.860039 40.426333 18.299093 41.193005 18.59375 41.8125 C 18.888407 42.431995 19 42.939353 19 43 C 19 44.651195 20.348805 46 22 46 L 41 46 C 42.651195 46 44 44.651195 44 43 L 44 33.25 C 47.630747 30.615209 50 26.322307 50 21.5 C 50 13.503585 43.496415 7 35.5 7 z M 35.5 9 C 42.415585 9 48 14.584415 48 21.5 C 48 25.12743 46.458393 28.376737 44 30.65625 L 44 24.15625 A 1.0001 1.0001 0 0 0 44 24 A 1.0001 1.0001 0 0 0 44 23.90625 L 44 22 C 44 20.348805 42.651195 19 41 19 L 23.25 19 C 24.413757 13.298784 29.446895 9 35.5 9 z M 6.5 17.1875 L 6.75 17.46875 C 6.2985643 18.019809 6.0978091 18.875043 6.375 19.625 C 6.6732433 20.431916 7.2917334 21.229233 8.28125 22.21875 C 9.8565186 23.794019 12.602127 26.300953 15.03125 28.15625 C 16.245812 29.083899 17.351571 29.834524 18.3125 30.25 C 18.792965 30.457738 19.249373 30.665918 19.875 30.53125 C 20.187813 30.46392 20.545449 30.245498 20.75 29.9375 C 20.954551 29.629502 21 29.289341 21 29 L 21 25 L 42 25 L 42 32.5 A 1.0103227 1.0103227 0 0 0 42 32.875 L 42 43 C 42 43.468805 41.468805 44 41 44 L 22 44 C 21.531195 44 21 43.468805 21 43 C 21 42.300647 20.756183 41.704458 20.40625 40.96875 C 20.056317 40.233042 19.57457 39.406479 19 38.5 C 17.85086 36.687042 16.305442 34.57431 14.71875 32.5 C 11.545366 28.351381 8.2581301 24.446206 7.15625 23.34375 C 6.1387093 22.326209 5.2906353 21.709535 4.46875 21.4375 C 3.7211207 21.190043 2.9379825 21.39657 2.40625 21.8125 L 2.125 21.5625 L 6.5 17.1875 z M 22.53125 21 L 41 21 C 41.468805 21 42 21.531195 42 22 L 42 23 L 21 23 L 21 22 C 21 21.615941 21.363352 21.203941 21.75 21.0625 A 1.0001 1.0001 0 0 0 22.53125 21 z" overflow="visible" enable-background="accumulate" font-family="Bitstream Vera Sans"/>
</svg>
