<?xml version="1.0"?>
<svg xmlns="http://www.w3.org/2000/svg" width="50" height="50" viewBox="0 0 50 50">
    <path d="M 15.4375 0.09375 C 13.974785 0.042250537 12.516483 0.72982883 11.65625 2.03125 L 0.625 18.6875 C -0.6785316 20.657625 -0.10856223 23.336012 1.84375 24.65625 L 1.84375 24.6875 C 1.85008 24.6917 1.868643 24.6833 1.875 24.6875 L 20.9375 37.4375 A 1.0001 1.0001 0 0 0 22.46875 36.625 C 22.48056 35.730946 23.034185 34.943569 23.78125 34.46875 C 24.528315 33.993931 25.349923 33.931096 25.78125 34.1875 A 1.0001 1.0001 0 0 0 27.28125 33.5 C 27.437315 32.551812 27.970442 31.915587 28.625 31.625 C 29.279558 31.334413 30.107919 31.348089 31.03125 31.9375 A 1.0001 1.0001 0 0 0 32.46875 31.5 C 32.992471 30.295908 33.646746 29.8383 34.34375 29.59375 C 35.040754 29.3492 35.82926 29.369481 36.4375 29.46875 A 1.0001 1.0001 0 0 0 37.4375 29.03125 L 41.96875 22.1875 C 43.281113 20.205326 42.732384 17.499143 40.75 16.1875 L 17.65625 0.8125 A 1.0001 1.0001 0 0 0 17.65625 0.78125 C 17.160478 0.45322277 16.615645 0.25797779 16.0625 0.15625 C 15.855071 0.11810208 15.646459 0.10110707 15.4375 0.09375 z M 15.25 2.09375 C 15.698649 2.0904717 16.160158 2.2025413 16.5625 2.46875 L 39.625 17.84375 A 1.0001 1.0001 0 0 0 39.65625 17.84375 C 40.729866 18.554107 41.022137 20.021924 40.3125 21.09375 L 36.03125 27.53125 C 35.324852 27.47078 34.571911 27.377197 33.6875 27.6875 C 32.747938 28.017153 31.890573 28.827764 31.1875 29.9375 C 30.025293 29.475536 28.834496 29.358791 27.8125 29.8125 C 26.813889 30.255827 26.143083 31.172666 25.71875 32.25 C 24.688727 32.06793 23.618404 32.20945 22.71875 32.78125 C 21.911853 33.294097 21.331531 34.11713 20.9375 35.0625 L 2.96875 23.03125 C 1.8960354 22.322191 1.6024415 20.854415 2.3125 19.78125 L 13.34375 3.125 C 13.698335 2.588559 14.228017 2.244237 14.8125 2.125 C 14.958621 2.0951907 15.10045 2.0948428 15.25 2.09375 z M 19.875 11.40625 C 19.665497 11.409194 19.442883 11.42934 19.21875 11.46875 C 17.425395 11.7843 16.450347 13.122777 16.125 14.21875 C 15.9551 14.791078 16.03527 14.92586 16.03125 15.3125 C 15.629395 15.3354 15.460794 15.28947 14.84375 15.5 C 14.292518 15.688072 13.682776 15.999681 13.1875 16.53125 C 12.692224 17.062819 12.364543 17.81873 12.3125 18.71875 C 12.212442 20.458756 13.14044 21.72095 14.03125 22.375 C 14.492217 22.71345 14.62532 22.678003 14.96875 22.8125 C 14.86526 23.173526 14.774576 23.264761 14.78125 23.84375 C 14.79421 24.967795 15.339748 26.471017 16.9375 27.375 C 18.572201 28.298007 20.211718 27.796311 21.125 27.0625 C 21.609875 26.672909 21.616085 26.517637 21.84375 26.1875 C 22.168703 26.402829 22.220514 26.539185 22.78125 26.71875 C 23.88059 27.070792 25.541821 27.014649 26.78125 25.65625 C 28.00094 24.322137 28.019104 22.707014 27.65625 21.65625 C 27.478704 21.142106 27.367305 21.113197 27.15625 20.8125 C 27.468283 20.577402 27.622681 20.577125 27.96875 20.09375 C 28.646816 19.146654 29.032122 17.513278 28.125 15.8125 C 27.217904 14.111163 25.657617 13.585132 24.5 13.65625 C 23.931793 13.69116 23.860526 13.800665 23.5 13.9375 C 23.361994 13.580434 23.374508 13.461071 23.03125 13 C 22.434446 12.19836 21.341519 11.385643 19.875 11.40625 z M 20.25 13.40625 C 20.833705 13.466045 21.139984 13.78787 21.4375 14.1875 C 21.834188 14.72034 22 15.34375 22 15.34375 A 1.0001 1.0001 0 0 0 23.46875 15.96875 C 23.46875 15.96875 24.008367 15.694132 24.625 15.65625 C 25.241633 15.61837 25.787096 15.67859 26.375 16.78125 C 26.962878 17.883472 26.715434 18.418346 26.34375 18.9375 C 25.972066 19.456654 25.4375 19.75 25.4375 19.75 A 1.0001 1.0001 0 0 0 25.1875 21.3125 C 25.1875 21.3125 25.580104 21.730014 25.78125 22.3125 C 25.982396 22.894986 26.06481 23.489613 25.3125 24.3125 C 24.582929 25.112101 24.01191 25.016458 23.375 24.8125 C 22.73809 24.608542 22.25 24.1875 22.25 24.1875 A 1.0001 1.0001 0 0 0 20.6875 24.5 C 20.6875 24.5 20.364218 25.081811 19.84375 25.5 C 19.323282 25.918189 18.878549 26.205243 17.90625 25.65625 C 16.897002 25.085233 16.788543 24.445205 16.78125 23.8125 C 16.773957 23.179795 17 22.6875 17 22.6875 A 1.0001 1.0001 0 0 0 16.3125 21.28125 C 16.3125 21.28125 15.75769 21.1457 15.21875 20.75 C 14.67981 20.3543 14.222308 19.868744 14.28125 18.84375 C 14.30921 18.36027 14.456838 18.089024 14.65625 17.875 C 14.855662 17.660976 15.164982 17.520553 15.5 17.40625 C 16.170036 17.177644 16.875 17.1875 16.875 17.1875 A 1.0001 1.0001 0 0 0 17.90625 16.0625 C 17.90625 16.0625 17.84185 15.450527 18.03125 14.8125 C 18.220653 14.174473 18.502855 13.62395 19.5625 13.4375 C 19.827984 13.390819 20.055432 13.386318 20.25 13.40625 z M 20.71875 17.53125 C 19.467825 17.53125 18.4375 18.530325 18.4375 19.78125 C 18.4375 21.032175 19.467825 22.0625 20.71875 22.0625 C 21.969675 22.0625 22.96875 21.032175 22.96875 19.78125 C 22.96875 18.530325 21.969675 17.53125 20.71875 17.53125 z M 33.875 33.875 C 33.611927 33.871364 33.395412 33.944166 33.25 34.09375 C 32.668351 34.692089 33.410207 36.358188 34.90625 37.8125 C 36.402293 39.266813 38.105851 39.973339 38.6875 39.375 C 39.269148 38.776662 38.527293 37.110563 37.03125 35.65625 C 35.909218 34.565516 34.66422 33.885908 33.875 33.875 z M 43.8125 36.40625 C 43.014516 36.297544 42.146766 37.81754 41.875 39.8125 C 41.603234 41.80746 42.014516 43.516294 42.8125 43.625 C 43.610484 43.733706 44.478234 42.21371 44.75 40.21875 C 45.021766 38.22379 44.610484 36.514956 43.8125 36.40625 z M 34.3125 41.25 C 33.621364 41.259588 33.097307 41.45821 32.9375 41.84375 C 32.617886 42.61483 33.804089 43.851931 35.59375 44.59375 C 37.38341 45.335568 39.086636 45.30233 39.40625 44.53125 C 39.725864 43.76017 38.53966 42.554318 36.75 41.8125 C 35.855169 41.441591 35.003636 41.240412 34.3125 41.25 z M 45.0625 45.96875 C 42.975969 45.956231 41.286257 46.634248 41.28125 47.46875 C 41.276243 48.303252 42.975969 48.987481 45.0625 49 C 47.149032 49.012519 48.838743 48.334502 48.84375 47.5 C 48.848757 46.665498 47.149032 45.981269 45.0625 45.96875 z"/>
</svg>
