<?xml version="1.0"?>
<svg xmlns="http://www.w3.org/2000/svg" width="50" height="50" viewBox="0 0 50 50">
    <path style="text-indent:0;text-align:start;line-height:normal;text-transform:none;block-progression:tb;-inkscape-font-specification:Bitstream Vera Sans" d="M 45.3125 0 C 42.383357 0 37.735254 0.23940935 33.71875 2.59375 C 30.50603 4.4769396 27.777189 7.7964088 26.8125 13.15625 C 25.859012 13.421487 24.828671 13.764848 23.9375 14.125 L 23.875 13.71875 A 1.0001 1.0001 0 0 0 22.71875 12.90625 L 18.3125 13.71875 A 1.0001 1.0001 0 0 0 17.5 14.875 L 17.625 15.46875 C 14.042284 16.376015 7.8839982 18.288289 2.84375 22.3125 C 1.0006126 23.783908 0.19359138 25.133272 0.09375 26.40625 C -0.00609138 27.679228 0.65236393 28.627733 1.09375 29.15625 C 1.7155295 29.90077 2.7238579 30.382978 3.9375 30.46875 C 5.1511421 30.55452 6.5780394 30.185949 7.90625 29.125 C 11.737012 26.066108 16.455253 24.577702 19.21875 23.875 A 1.0001 1.0001 0 0 0 20.375 24.65625 L 24.78125 23.875 A 1.0001 1.0001 0 0 0 25.59375 22.6875 L 25.53125 22.375 C 26.032063 22.337257 26.506623 22.276927 27.40625 22.21875 C 27.687949 22.978754 28.004857 23.78022 28.34375 24.625 L 27.9375 24.625 A 1.0001 1.0001 0 0 0 26.96875 25.65625 L 27.09375 30.375 A 1.0001 1.0001 0 0 0 28.09375 31.34375 C 27.944493 34.079262 27.415018 38.584375 25.15625 42.875 C 23.579973 45.868767 24.77056 48.567949 26.5 49.4375 C 27.114685 49.74656 28.180454 50.171707 29.40625 49.8125 C 30.632046 49.453293 31.814153 48.386949 32.90625 46.3125 C 35.876548 40.670582 36.565732 34.688181 36.75 31.09375 L 37.40625 31.0625 A 1.0001 1.0001 0 0 0 38.375 30.03125 L 38.21875 25.34375 A 1.0001 1.0001 0 0 0 37.1875 24.375 L 37.0625 24.375 L 37.0625 22.40625 C 37.168933 22.259233 37.405635 21.885618 37.6875 21.34375 C 42.535648 19.455204 44.259295 16.658625 45.75 15.1875 C 48.697372 12.279239 49.75 11.15625 49.75 11.15625 A 1.0001 1.0001 0 0 0 49.53125 9.625 C 49.53125 9.625 48.004791 8.7389891 45.6875 8.4375 C 43.69003 8.177621 41.085771 8.378857 38.34375 9.9375 C 38.404571 9.7081953 38.470047 9.4813046 38.5625 9.21875 C 39.307663 7.1005878 40.884408 5.3030559 42.40625 4.03125 C 43.167171 3.395347 43.908756 2.8902766 44.5 2.53125 C 45.091244 2.1722234 45.605133 1.9441379 45.625 1.9375 A 1.0001 1.0001 0 0 0 45.3125 0 z M 41.375 2.3125 C 41.28348 2.38618 41.217405 2.4227774 41.125 2.5 C 39.427092 3.9189441 37.575087 5.9506622 36.65625 8.5625 C 36.00242 10.419291 36.058725 11.838948 36.28125 13.0625 C 36.503775 14.286052 36.84375 15.282046 36.84375 16.6875 C 36.84375 19.426521 35.28125 21.5 35.28125 21.5 A 1.0001 1.0001 0 0 0 35.0625 22.125 L 35.0625 24.4375 L 30.46875 24.5625 C 29.332311 21.637157 28.4375 19.740852 28.4375 17.5625 C 28.4375 10.048233 31.242504 6.3501593 34.71875 4.3125 C 36.834876 3.0720973 39.173624 2.5817107 41.375 2.3125 z M 43.5625 10.3125 C 45.112278 10.201574 46.394018 10.525251 47.25 10.84375 C 46.827101 11.289628 46.518417 11.63544 44.34375 13.78125 C 42.785648 15.318888 41.687007 17.177278 38.625 18.75 C 38.757041 18.121878 38.84375 17.442048 38.84375 16.6875 C 38.84375 14.976954 38.440725 13.767448 38.25 12.71875 C 38.230973 12.614128 38.234381 12.508758 38.21875 12.40625 C 40.194907 10.968956 42.012722 10.423426 43.5625 10.3125 z M 33 15 C 31.895431 15 31 15.895431 31 17 C 31 18.104569 31.895431 19 33 19 C 34.104569 19 35 18.104569 35 17 C 35 15.895431 34.104569 15 33 15 z M 22.09375 15.0625 L 23.4375 22.09375 L 21 22.53125 L 20.96875 22.40625 A 1.0001 1.0001 0 0 0 19.75 21.59375 C 17.078249 22.207141 11.288582 23.863549 6.65625 27.5625 C 5.6884606 28.335551 4.7873579 28.519978 4.0625 28.46875 C 3.3376421 28.417522 2.7732205 28.05248 2.625 27.875 C 2.2963861 27.481517 2.0525914 27.087272 2.09375 26.5625 C 2.134909 26.037728 2.4908874 25.154592 4.09375 23.875 C 9.0583026 19.911226 15.742075 17.901815 19 17.125 A 1.0001 1.0001 0 0 0 19.75 15.96875 L 19.65625 15.5 L 22.09375 15.0625 z M 26.53125 15.34375 C 26.472623 16.056252 26.4375 16.786701 26.4375 17.5625 C 26.4375 18.521727 26.560184 19.408587 26.78125 20.28125 C 26.048396 20.336049 25.521626 20.374348 25.15625 20.40625 L 24.34375 16.125 C 24.970326 15.857644 25.73228 15.591188 26.53125 15.34375 z M 36.25 26.40625 L 36.34375 29.09375 L 35.84375 29.125 A 1.0001 1.0001 0 0 0 34.84375 30.09375 C 34.731707 33.356649 34.070909 39.810658 31.125 45.40625 C 30.177097 47.206801 29.377954 47.749707 28.84375 47.90625 C 28.309546 48.062793 27.865565 47.88719 27.40625 47.65625 C 26.98769 47.445801 25.762527 45.984733 26.90625 43.8125 C 29.640347 38.618968 30.148372 33.040877 30.21875 30.34375 A 1.0001 1.0001 0 0 0 29.1875 29.3125 L 29.0625 29.3125 L 28.96875 26.59375 L 36.25 26.40625 z" overflow="visible" enable-background="accumulate" font-family="Bitstream Vera Sans"/>
</svg>
